<svg aria-hidden="true" style="position: absolute; width: 0; height: 0; overflow: hidden;" version="1.1" xmlns="http://www.w3.org/2000/svg" xmlns:xlink="http://www.w3.org/1999/xlink">
  <defs>
  
   <symbol id="icon-account" viewBox="0 0 32 32">
      <path stroke-linejoin="round" stroke-linecap="round" stroke-miterlimit="4" stroke-width="1.6842" d="M9.999 17.318h11.838c4.588 0 8.315 3.727 8.315 8.315v4.814h-28.468v-4.814c0-4.588 3.727-8.315 8.315-8.315v0z"></path>
      <path stroke-linejoin="round" stroke-linecap="round" stroke-miterlimit="4" stroke-width="1.6842" d="M23.99 9.047c0-4.532-3.674-8.205-8.206-8.205s-8.205 3.674-8.205 8.205c0 4.532 3.674 8.205 8.205 8.205s8.206-3.674 8.206-8.205z"></path>
      <path stroke-linejoin="round" stroke-linecap="round" stroke-miterlimit="4" stroke-width="1.6842" d="M7.519 24.611h5.835"></path>
   </symbol>
  
   <symbol id="icon-arrows_prev" viewBox="0 0 32 32">
      <path fill="#fff" style="fill: var(--color1, #fff)" d="M16 0c8.837 0 16 7.163 16 16s-7.163 16-16 16c-8.837 0-16-7.163-16-16s7.163-16 16-16z"></path>
      <path fill="#d9aeff" style="fill: var(--color2, #d9aeff)" d="M24.686 16.943c0.521 0 0.943-0.422 0.943-0.943s-0.422-0.943-0.943-0.943v1.886zM6.103 15.333c-0.368 0.368-0.368 0.965 0 1.334l6.001 6.001c0.368 0.368 0.965 0.368 1.334 0s0.368-0.965 0-1.334l-5.334-5.334 5.334-5.334c0.368-0.368 0.368-0.965 0-1.334s-0.965-0.368-1.334 0l-6.001 6.001zM24.686 15.057h-17.916v1.886h17.916v-1.886z"></path>
   </symbol>
   
	<symbol id="icon-arrows_next" viewBox="0 0 32 32">
      <path fill="#fff" style="fill: var(--color1, #fff)" d="M16 32c-8.837 0-16-7.163-16-16s7.163-16 16-16c8.837 0 16 7.163 16 16s-7.163 16-16 16z"></path>
      <path fill="#d9aeff" style="fill: var(--color2, #d9aeff)" d="M7.314 15.057c-0.521 0-0.943 0.422-0.943 0.943s0.422 0.943 0.943 0.943v-1.886zM25.897 16.667c0.368-0.368 0.368-0.965 0-1.334l-6.001-6.001c-0.368-0.368-0.965-0.368-1.334 0s-0.368 0.965 0 1.334l5.334 5.334-5.334 5.334c-0.368 0.368-0.368 0.965 0 1.334s0.965 0.368 1.334 0l6.001-6.001zM7.314 16.943h17.916v-1.886h-17.916v1.886z"></path>
   </symbol>
   
	<symbol id="icon-eyes" viewBox="0 0 32 32">
      <path fill="#fff" style="fill: var(--color1, #fff)" d="M6.91 22.838c3.816 0 6.91-3.094 6.91-6.91s-3.094-6.91-6.91-6.91c-3.816 0-6.91 3.094-6.91 6.91s3.094 6.91 6.91 6.91z"></path>
      <path fill="#282520" style="fill: var(--color3, #282520)" d="M3.605 12.64h-0.176c-1.816 0-3.288 1.47-3.288 3.284s1.472 3.283 3.288 3.283h0.176c1.816 0 3.288-1.47 3.288-3.284s-1.472-3.284-3.288-3.284z"></path>
      <path fill="#fff" style="fill: var(--color1, #fff)" d="M25.090 22.838c3.816 0 6.91-3.094 6.91-6.91s-3.094-6.91-6.91-6.91-6.91 3.094-6.91 6.91c0 3.816 3.094 6.91 6.91 6.91z"></path>
      <path fill="#282520" style="fill: var(--color3, #282520)" d="M21.785 12.64h-0.176c-1.816 0-3.288 1.47-3.288 3.284s1.472 3.283 3.288 3.283h0.176c1.816 0 3.288-1.47 3.288-3.284s-1.472-3.284-3.288-3.284z"></path>
   </symbol>
  
   <symbol id="icon-facebook" viewBox="0 0 32 32">
      <path fill="#282520" style="fill: var(--color3, #282520)" d="M32 16c0-8.837-7.163-16-16-16s-16 7.163-16 16c0 7.986 5.851 14.605 13.5 15.806v-11.181h-4.062v-4.625h4.062v-3.525c0-4.010 2.389-6.225 6.043-6.225 1.751 0 3.582 0.313 3.582 0.313v3.937h-2.018c-1.988 0-2.607 1.233-2.607 2.499v3.001h4.438l-0.709 4.625h-3.728v11.181c7.649-1.2 13.5-7.82 13.5-15.806z"></path>
      <path fill="#fff" style="fill: var(--color1, #fff)" d="M22.228 20.625l0.709-4.625h-4.438v-3.001c0-1.265 0.62-2.499 2.607-2.499h2.018v-3.938c0 0-1.831-0.313-3.582-0.313-3.655 0-6.043 2.215-6.043 6.225v3.525h-4.062v4.625h4.062v11.181c0.815 0.128 1.65 0.194 2.5 0.194s1.685-0.067 2.5-0.194v-11.181h3.728z"></path>
   </symbol>
  
   <symbol id="icon-instagram" viewBox="0 0 32 32">
      <path d="M16 0c8.831 0 16 7.169 16 16s-7.169 16-16 16c-8.831 0-16-7.169-16-16s7.169-16 16-16zM16 6c-2.716 0-3.056 0.011-4.123 0.060-1.064 0.049-1.791 0.218-2.427 0.465-0.658 0.256-1.215 0.598-1.771 1.153s-0.898 1.114-1.153 1.771c-0.247 0.636-0.416 1.363-0.465 2.427-0.049 1.067-0.060 1.407-0.060 4.123s0.011 3.056 0.060 4.123c0.049 1.064 0.218 1.791 0.465 2.427 0.256 0.658 0.598 1.215 1.153 1.771s1.114 0.898 1.771 1.153c0.636 0.247 1.363 0.416 2.427 0.465 1.067 0.049 1.407 0.060 4.123 0.060s3.056-0.012 4.123-0.060c1.064-0.049 1.791-0.218 2.427-0.465 0.658-0.256 1.215-0.597 1.771-1.153s0.898-1.114 1.153-1.771c0.247-0.636 0.416-1.363 0.465-2.427 0.049-1.067 0.060-1.407 0.060-4.123s-0.012-3.056-0.060-4.123c-0.049-1.064-0.218-1.791-0.465-2.427-0.256-0.658-0.597-1.215-1.153-1.771s-1.114-0.898-1.771-1.153c-0.636-0.247-1.363-0.416-2.427-0.465-1.067-0.049-1.407-0.060-4.123-0.060zM16 7.802c2.67 0 2.986 0.010 4.041 0.058 0.975 0.045 1.504 0.207 1.857 0.344 0.467 0.181 0.8 0.398 1.15 0.748s0.567 0.683 0.748 1.15c0.137 0.352 0.3 0.882 0.344 1.857 0.048 1.054 0.058 1.371 0.058 4.041s-0.010 2.986-0.058 4.041c-0.044 0.975-0.207 1.504-0.344 1.857-0.181 0.467-0.398 0.8-0.748 1.15s-0.683 0.567-1.15 0.748c-0.352 0.137-0.882 0.3-1.857 0.344-1.054 0.048-1.371 0.058-4.041 0.058s-2.986-0.010-4.041-0.058c-0.975-0.044-1.504-0.207-1.857-0.344-0.467-0.181-0.8-0.398-1.15-0.748s-0.567-0.683-0.748-1.15c-0.137-0.352-0.3-0.882-0.344-1.857-0.048-1.054-0.058-1.371-0.058-4.041s0.010-2.986 0.058-4.041c0.045-0.975 0.207-1.504 0.344-1.857 0.181-0.467 0.398-0.8 0.748-1.15s0.683-0.567 1.15-0.748c0.352-0.137 0.882-0.3 1.857-0.344 1.054-0.048 1.371-0.058 4.041-0.058zM16 10.865c-2.836 0-5.135 2.299-5.135 5.135s2.299 5.135 5.135 5.135c2.836 0 5.135-2.299 5.135-5.135s-2.299-5.135-5.135-5.135zM16 19.333c-1.841 0-3.333-1.492-3.333-3.333s1.492-3.333 3.333-3.333c1.841 0 3.333 1.492 3.333 3.333s-1.492 3.333-3.333 3.333zM22.538 10.662c0 0.663-0.537 1.2-1.2 1.2s-1.2-0.537-1.2-1.2c0-0.663 0.537-1.2 1.2-1.2s1.2 0.537 1.2 1.2z"></path>
   </symbol>
   
	<symbol id="icon-linkedin" viewBox="0 0 32 32">
      <path fill="#282520" style="fill: var(--color3, #282520)" d="M16 32c-8.835 0-16-7.165-16-16s7.165-16 16-16c8.835 0 16 7.165 16 16s-7.165 16-16 16z"></path>
      <path fill="#fff" style="fill: var(--color1, #fff)" d="M5.894 12.394h4.253v13.686h-4.253v-13.686zM8.022 5.59c1.36 0 2.464 1.104 2.464 2.467s-1.104 2.467-2.464 2.467-2.467-1.104-2.467-2.467c-0.003-1.36 1.101-2.467 2.467-2.467z"></path>
      <path fill="#fff" style="fill: var(--color1, #fff)" d="M12.816 12.394h4.080v1.869h0.058c0.566-1.075 1.952-2.211 4.026-2.211 4.307 0 5.104 2.835 5.104 6.518v7.51h-4.253v-6.653c0-1.59-0.029-3.629-2.211-3.629s-2.554 1.728-2.554 3.514v6.771h-4.25v-13.69z"></path>
   </symbol>

	<symbol id="icon-quote" viewBox="0 0 45 32">
      <path fill="#fff" style="fill: var(--color1, #fff)" d="M16.108 0.009v6.308c-4.389 0.334-7.468 2.49-9.077 6.656 1.544 0 3.039-0.191 4.469 0.034 4.765 0.75 8.134 5.153 7.838 10.035-0.288 4.714-4.201 8.649-8.894 8.938-4.887 0.302-9.435-3.029-10.025-7.817-0.515-4.181-0.732-8.458 0.402-12.608 1.754-6.417 7.607-11.116 14.203-11.544 0.345-0.023 0.692-0.003 1.085-0.003z"></path>
      <path fill="#fff" style="fill: var(--color1, #fff)" d="M41.69 0.009v6.308c-4.38 0.334-7.462 2.487-9.077 6.653 1.541 0 3.036-0.191 4.463 0.034 4.767 0.75 8.137 5.145 7.843 10.030-0.282 4.714-4.195 8.649-8.889 8.946-4.884 0.308-9.441-3.026-10.031-7.808-0.515-4.181-0.732-8.458 0.399-12.608 1.754-6.422 7.601-11.116 14.203-11.553 0.344-0.023 0.692-0.003 1.088-0.003z"></path>
   </symbol>

   <symbol id="icon-burger" viewBox="0 0 28 32">
      <path d="M0 6c0-1.106 0.894-2 2-2h24c1.106 0 2 0.894 2 2s-0.894 2-2 2h-24c-1.106 0-2-0.894-2-2zM0 16c0-1.106 0.894-2 2-2h24c1.106 0 2 0.894 2 2s-0.894 2-2 2h-24c-1.106 0-2-0.894-2-2zM28 26c0 1.106-0.894 2-2 2h-24c-1.106 0-2-0.894-2-2s0.894-2 2-2h24c1.106 0 2 0.894 2 2z"></path>
   </symbol>

</defs>
</svg>
