<svg width="55" height="24" viewBox="0 0 55 24" fill="none" xmlns="http://www.w3.org/2000/svg">
<path d="M11.8763 23.7527C18.4355 23.7527 23.7527 18.4355 23.7527 11.8764C23.7527 5.31723 18.4355 0 11.8763 0C5.31722 0 0 5.31723 0 11.8764C0 18.4355 5.31722 23.7527 11.8763 23.7527Z" fill="white"/>
<path d="M6.19627 6.22522H5.89407C2.77306 6.22522 0.242981 8.75192 0.242981 11.8688C0.242981 14.9856 2.77306 17.5123 5.89407 17.5123H6.19627C9.31728 17.5123 11.8474 14.9856 11.8474 11.8688C11.8474 8.75192 9.31728 6.22522 6.19627 6.22522Z" fill="#282520"/>
<path d="M43.1236 23.7527C49.6827 23.7527 55 18.4355 55 11.8764C55 5.31723 49.6827 0 43.1236 0C36.5645 0 31.2473 5.31723 31.2473 11.8764C31.2473 18.4355 36.5645 23.7527 43.1236 23.7527Z" fill="white"/>
<path d="M37.4435 6.22522H37.1413C34.0202 6.22522 31.4902 8.75192 31.4902 11.8688C31.4902 14.9856 34.0202 17.5123 37.1413 17.5123H37.4435C40.5645 17.5123 43.0946 14.9856 43.0946 11.8688C43.0946 8.75192 40.5645 6.22522 37.4435 6.22522Z" fill="#282520"/>
</svg>
