<svg width="126" height="75" viewBox="0 0 126 75" fill="none" xmlns="http://www.w3.org/2000/svg">
<g clip-path="url(#clip0_1_82)">
<path d="M38.0528 45.0723V67.5286C38.0528 72.2619 35.2951 75.0016 30.5307 75.0016H25.7303C25.051 75.0016 24.6731 74.6293 24.6731 73.9513V71.4365C24.6731 70.7617 25.051 70.4219 25.7303 70.4219H29.7374C31.8533 70.4219 32.9511 69.3716 32.9511 67.2664V65.8391C32.9511 65.5025 32.5326 65.1643 32.1578 65.4637L30.1887 67.043C29.9638 67.2292 29.7374 67.2664 29.5453 67.2664H25.3134C21.7982 67.2664 19.5683 65.051 19.5683 61.5589V45.0723C19.5683 44.3603 19.9072 44.0221 20.5865 44.0221H23.6128C24.2921 44.0221 24.67 44.3618 24.67 45.0723V61.109C24.67 62.0832 25.2759 62.6852 26.2566 62.6852H32.3796C32.795 62.6852 32.948 62.5362 32.948 62.1205V45.0351C32.948 45.0025 32.948 44.9715 32.9511 44.942C32.9574 44.8583 32.9683 44.7822 32.9839 44.7093C32.9839 44.6954 32.987 44.6829 32.9933 44.669C32.9995 44.6426 33.0073 44.6162 33.0167 44.593C33.0261 44.5604 33.0401 44.5294 33.0542 44.4999C33.1979 44.2098 33.4789 44.0515 33.8818 44.0236C33.9224 44.0205 33.9615 44.0205 34.0052 44.0205H36.991C37.6702 44.0205 38.0482 44.3603 38.0482 45.0708L38.0528 45.0723Z" fill="#282520"/>
<path d="M46.8102 57.5781C43.2951 57.5781 41.0651 55.3627 41.0651 51.8705V49.7296C41.0651 46.2375 43.2951 44.0221 46.8102 44.0221H53.828C54.5089 44.0221 54.8868 44.3603 54.8868 45.0367V47.553C54.8868 48.2294 54.5089 48.6049 53.828 48.6049H47.755C46.7712 48.6049 46.1668 49.2053 46.1668 50.1826V51.6471C46.1668 52.623 46.7712 53.2249 47.755 53.2249H51.8744C55.3896 53.2249 57.6195 55.4403 57.6195 58.9324V61.5605C57.6195 65.0526 55.3896 67.268 51.8744 67.268H42.9906C42.3097 67.268 41.9318 66.9298 41.9318 66.2534V63.7371C41.9318 63.0606 42.3097 62.6852 42.9906 62.6852H50.9281C51.9104 62.6852 52.5163 62.0848 52.5163 61.1075V59.1543C52.5163 58.1784 51.9119 57.5765 50.9281 57.5765H46.8087L46.8102 57.5781Z" fill="#282520"/>
<path d="M5.74509 57.5781C2.22995 57.5781 0 55.3627 0 51.8705V49.7296C0 46.2375 2.22995 44.0221 5.74509 44.0221H12.7629C13.4437 44.0221 13.8216 44.3603 13.8216 45.0367V47.553C13.8216 48.2294 13.4437 48.6049 12.7629 48.6049H6.69141C5.70761 48.6049 5.10328 49.2053 5.10328 50.1826V51.6471C5.10328 52.623 5.70761 53.2249 6.69141 53.2249H10.8109C14.326 53.2249 16.556 55.4403 16.556 58.9324V61.5605C16.556 65.0526 14.326 67.268 10.8109 67.268H1.92856C1.24771 67.268 0.869806 66.9298 0.869806 66.2534V63.7371C0.869806 63.0606 1.24771 62.6852 1.92856 62.6852H9.86613C10.8484 62.6852 11.4543 62.0848 11.4543 61.1075V59.1543C11.4543 58.1784 10.8499 57.5765 9.86613 57.5765H5.74665L5.74509 57.5781Z" fill="#282520"/>
<path d="M66.3051 44.0205H70.8415C71.5224 44.0205 71.9003 44.3959 71.9003 45.0723V47.5514C71.9003 48.2278 71.5224 48.6033 70.8415 48.6033H66.3051C65.8897 48.6033 65.7382 48.7538 65.7382 49.1664V59.5312C65.7382 61.6349 66.8345 62.6852 68.952 62.6852H70.8415C71.5224 62.6852 71.9003 63.0234 71.9003 63.6982V66.2146C71.9003 66.891 71.5224 67.2664 70.8415 67.2664H68.1571C63.3943 67.2664 60.6349 64.5251 60.6349 59.7934V40.1529C60.6349 39.7402 60.8239 39.3648 61.2393 39.2515L64.3016 38.313C64.9824 38.088 65.7382 38.4262 65.7382 39.2143V43.4573C65.7382 43.87 65.8897 44.0205 66.3051 44.0205Z" fill="#282520"/>
<path d="M93.2613 51.4935V54.7979C93.2613 56.9016 91.9761 58.1784 89.8586 58.1784H81.0137C80.5983 58.1784 80.4469 58.3289 80.4469 58.7415V59.5296C80.4469 61.6333 81.5431 62.6836 83.6606 62.6836H89.8976C90.5785 62.6836 90.9564 63.0218 90.9564 63.6966V66.213C90.9564 66.8894 90.5785 67.2648 89.8976 67.2648H82.8673C78.1045 67.2648 75.3452 64.5235 75.3452 59.7918V51.4919C75.3452 46.7602 78.1045 44.0189 82.8673 44.0189H85.7407C90.5035 44.0189 93.2628 46.7602 93.2628 51.4919L93.2613 51.4935ZM84.9458 48.2263H83.6606C81.5431 48.2263 80.4469 49.2781 80.4469 51.3802V53.4079C80.4469 53.8206 80.5983 53.971 81.0137 53.971H87.0992C87.7801 53.971 88.158 53.5956 88.158 52.9192V51.3802C88.158 49.2766 87.0618 48.2263 84.9443 48.2263H84.9458Z" fill="#282520"/>
<path d="M114.093 66.2146C114.093 66.9282 113.752 67.2664 113.072 67.2664H110.047C109.366 67.2664 108.988 66.9282 108.988 66.2146V50.1795C108.988 49.2037 108.384 48.6017 107.4 48.6017H102.751C102.336 48.6017 102.184 48.7522 102.184 49.1649V66.2146C102.184 66.9282 101.844 67.2664 101.163 67.2664H98.1381C97.4573 67.2664 97.0793 66.9282 97.0793 66.2146V45.0723C97.0793 44.3587 97.4573 44.0205 98.1381 44.0205H101.163C101.844 44.0205 102.184 44.3587 102.184 45.0723V45.4478C102.184 45.786 102.6 46.1242 102.977 45.8232L104.944 44.2455C105.17 44.0577 105.396 44.0205 105.585 44.0205H108.345C110.234 44.0205 111.785 44.6597 112.767 45.8232C112.919 45.9737 113.182 46.0109 113.41 45.8232L115.377 44.2455C115.603 44.0577 115.831 44.0205 116.02 44.0205H120.253C123.768 44.0205 125.998 46.2359 125.998 49.728V66.2146C125.998 66.9282 125.658 67.2664 124.977 67.2664H121.952C121.271 67.2664 120.894 66.9282 120.894 66.2146V50.1795C120.894 49.2037 120.289 48.6017 119.305 48.6017H114.657C114.241 48.6017 114.09 48.7522 114.09 49.1649V66.2146H114.093Z" fill="#282520"/>
<path d="M5.21418 26.5518C5.21418 26.9645 5.36565 27.115 5.78103 27.115H13.6327C14.3136 27.115 14.6915 27.4904 14.6915 28.1668V30.6832C14.6915 31.3596 14.3136 31.6978 13.6327 31.6978H1.16966C0.488806 31.6978 0.110901 31.3596 0.110901 30.6459V3.72481C0.110901 3.04841 0.488806 2.67297 1.16966 2.67297H4.1929C4.87375 2.67297 5.21418 3.04841 5.21418 3.72481V26.5518Z" fill="#282520"/>
<path d="M28.0446 8.45032H23.8861C19.1217 8.45032 16.364 11.1901 16.364 15.9233V24.2217C16.364 28.9549 19.1217 31.6947 23.8861 31.6947H28.0446C32.8091 31.6947 35.5668 28.9549 35.5668 24.2217V15.9233C35.5668 11.1901 32.8091 8.45032 28.0446 8.45032ZM32.5139 20.9157L31.0648 21.8108C30.6931 22.0404 30.4682 22.4422 30.4682 22.8751V24.4311C30.4682 25.8972 29.2705 27.0886 27.7932 27.0886H24.0845C22.6384 27.0886 21.4625 25.922 21.4625 24.4838V22.8735C21.4625 22.4407 21.2346 22.0389 20.866 21.8093L19.4169 20.9141C18.8141 20.5418 18.8141 19.6699 19.4169 19.2976L20.866 18.4024C21.2346 18.1759 21.4625 17.771 21.4625 17.3382V15.7123C21.4625 14.2556 22.6603 13.0548 24.1375 13.0548H27.7932C29.2658 13.0548 30.4682 14.2556 30.4682 15.7123V17.3382C30.4682 17.771 30.6931 18.1759 31.0648 18.4024L32.5139 19.2976C33.1198 19.6699 33.1198 20.5449 32.5139 20.9141V20.9157Z" fill="#282520"/>
<path d="M70.4512 13.0316H64.2142C63.5333 13.0316 63.1554 12.6934 63.1554 12.017V9.50069C63.1554 8.82429 63.5333 8.44885 64.2142 8.44885H71.2444C76.0073 8.44885 78.7666 11.1901 78.7666 15.9219V30.6429C78.7666 31.3566 78.3887 31.6948 77.7079 31.6948H74.6831C74.0022 31.6948 73.6618 31.3566 73.6618 30.6429V30.2675C73.6618 29.9293 73.2464 29.5911 72.8685 29.892L70.9025 31.4698C70.676 31.6575 70.4496 31.6948 70.2606 31.6948H66.9719C63.4568 31.6948 61.2253 29.4794 61.2253 25.9872V23.3204C61.2253 19.8282 63.4552 17.6129 66.9719 17.6129H73.0949C73.5103 17.6129 73.6618 17.4624 73.6618 17.0497V16.1856C73.6618 14.0819 72.5655 13.0316 70.448 13.0316H70.4512ZM66.3317 25.5373C66.3317 26.5131 66.936 27.1151 67.9198 27.1151H73.098C73.5134 27.1151 73.6649 26.9646 73.6649 26.5519V22.3834C73.6649 21.9707 73.5134 21.8202 73.098 21.8202H67.9198C66.9376 21.8202 66.3317 22.4206 66.3317 23.398V25.5389V25.5373Z" fill="#282520"/>
<path d="M88.272 1.05494V30.6444C88.272 31.3596 87.8941 31.6947 87.2148 31.6947H84.1885C83.5092 31.6947 83.1672 31.3581 83.1672 30.6444V1.05494C83.1672 0.339753 83.5451 0 84.2291 0H87.2523C87.9316 0 88.2736 0.339753 88.2736 1.05494H88.272Z" fill="#282520"/>
<path d="M98.5754 8.45042H103.112C103.793 8.45042 104.171 8.82585 104.171 9.50225V11.9814C104.171 12.6578 103.793 13.0332 103.112 13.0332H98.5754C98.16 13.0332 98.0085 13.1837 98.0085 13.5963V23.9611C98.0085 26.0648 99.1048 27.1151 101.222 27.1151H103.112C103.793 27.1151 104.171 27.4533 104.171 28.1281V30.6445C104.171 31.3209 103.793 31.6963 103.112 31.6963H100.427C95.6646 31.6963 92.9053 28.955 92.9053 24.2233V4.58282C92.9053 4.17015 93.0942 3.79472 93.5096 3.68147L96.5719 2.74288C97.2527 2.51793 98.0085 2.85613 98.0085 3.64424V7.88727C98.0085 8.29993 98.16 8.45042 98.5754 8.45042Z" fill="#282520"/>
<path d="M126 9.50215V31.9569C126 36.6901 123.242 39.4299 118.478 39.4299H113.678C112.998 39.4299 112.62 39.0575 112.62 38.3796V35.8648C112.62 35.1899 112.998 34.8502 113.678 34.8502H117.685C119.801 34.8502 120.898 33.7999 120.898 31.6947V30.2674C120.898 29.9307 120.48 29.5925 120.105 29.892L118.136 31.4713C117.911 31.6574 117.685 31.6947 117.493 31.6947H113.261C109.745 31.6947 107.516 29.4793 107.516 25.9871V9.50215C107.516 8.79007 107.854 8.45187 108.534 8.45187H111.56C112.239 8.45187 112.617 8.79162 112.617 9.50215V25.5388C112.617 26.5131 113.223 27.115 114.204 27.115H120.327C120.742 27.115 120.895 26.9661 120.895 26.5503V9.46492C120.895 9.43234 120.895 9.40131 120.898 9.37184C120.905 9.28806 120.915 9.21205 120.931 9.13913C120.931 9.12517 120.934 9.11276 120.94 9.09879C120.947 9.07242 120.955 9.04605 120.964 9.02278C120.973 8.9902 120.987 8.95917 121.001 8.92969C121.145 8.63959 121.426 8.48135 121.829 8.45342C121.87 8.45032 121.909 8.45032 121.952 8.45032H124.938C125.617 8.45032 125.995 8.79007 125.995 9.5006L126 9.50215Z" fill="#282520"/>
<path d="M57.8804 9.50215V31.9569C57.8804 36.6901 55.1226 39.4299 50.3582 39.4299H45.5578C44.8786 39.4299 44.5006 39.0575 44.5006 38.3796V35.8648C44.5006 35.1899 44.8786 34.8502 45.5578 34.8502H49.5649C51.6808 34.8502 52.7786 33.7999 52.7786 31.6947V30.2674C52.7786 29.9307 52.3601 29.5925 51.9853 29.892L50.0162 31.4713C49.7913 31.6574 49.5649 31.6947 49.3728 31.6947H45.1409C41.6258 31.6947 39.3958 29.4793 39.3958 25.9871V9.50215C39.3958 8.79007 39.7347 8.45187 40.414 8.45187H43.4403C44.1196 8.45187 44.4975 8.79162 44.4975 9.50215V25.5388C44.4975 26.5131 45.1034 27.115 46.0841 27.115H52.2071C52.6225 27.115 52.7755 26.9661 52.7755 26.5503V9.46492C52.7755 9.43234 52.7755 9.40131 52.7786 9.37184C52.7849 9.28806 52.7958 9.21205 52.8114 9.13913C52.8114 9.12517 52.8146 9.11276 52.8208 9.09879C52.827 9.07242 52.8349 9.04605 52.8442 9.02278C52.8536 8.9902 52.8677 8.95917 52.8817 8.92969C53.0254 8.63959 53.3065 8.48135 53.7093 8.45342C53.7499 8.45032 53.789 8.45032 53.8327 8.45032H56.8185C57.4978 8.45032 57.8757 8.79007 57.8757 9.5006L57.8804 9.50215Z" fill="#282520"/>
</g>
<defs>
<clipPath id="clip0_1_82">
<rect width="126" height="75" fill="white"/>
</clipPath>
</defs>
</svg>
