<svg width="132" height="94" viewBox="0 0 132 94" fill="none" xmlns="http://www.w3.org/2000/svg">
<g clip-path="url(#clip0_1_55)">
<path d="M47.3185 0.0252116V18.5555C34.4263 19.5356 25.3826 25.8687 20.6558 38.1077C25.1902 38.1077 29.5824 37.5465 33.7821 38.2083C47.7786 40.4115 57.6757 53.3458 56.8056 67.6874C55.9606 81.5349 44.4656 93.0953 30.6783 93.9414C16.3221 94.8294 2.9615 85.0449 1.22972 70.9797C-0.284537 58.6988 -0.920359 46.133 2.40934 33.9443C7.56285 15.0957 24.7551 1.29016 44.131 0.0335888C45.1433 -0.0334284 46.1639 0.0252116 47.3185 0.0252116Z" fill="white"/>
<path d="M122.463 0.0250896V18.5553C109.596 19.5355 100.544 25.8602 95.8 38.0992C100.326 38.0992 104.718 37.538 108.91 38.1998C122.914 40.403 132.812 53.3121 131.95 67.6622C131.122 81.5096 119.627 93.0701 105.839 93.9413C91.4914 94.846 78.1057 85.0532 76.3739 71.0047C74.8597 58.7238 74.2239 46.1581 77.5452 33.9693C82.6987 15.104 99.8743 1.31517 119.267 0.0334667C120.279 -0.0335505 121.3 0.0250896 122.463 0.0250896Z" fill="white"/>
</g>
<defs>
<clipPath id="clip0_1_55">
<rect width="132" height="94" fill="white"/>
</clipPath>
</defs>
</svg>
